<svg width="417" height="269" viewBox="0 0 417 269" fill="none" xmlns="http://www.w3.org/2000/svg">
<circle cx="25.4483" cy="195.448" r="5.44828" fill="#F2F2F2"/>
<circle cx="59.5" cy="195.448" r="5.44828" fill="#F2F2F2"/>
<circle cx="93.5517" cy="195.448" r="5.44828" fill="#F2F2F2"/>
<circle cx="161.655" cy="195.448" r="5.44828" fill="#F2F2F2"/>
<circle cx="195.707" cy="195.448" r="5.44828" fill="#F2F2F2"/>
<circle cx="127.603" cy="195.448" r="5.44828" fill="#F2F2F2"/>
<circle cx="25.4483" cy="229.5" r="5.44828" fill="#F2F2F2"/>
<circle cx="59.5" cy="229.5" r="5.44828" fill="#F2F2F2"/>
<circle cx="93.5517" cy="229.5" r="5.44828" fill="#F2F2F2"/>
<circle cx="161.655" cy="229.5" r="5.44828" fill="#F2F2F2"/>
<circle cx="195.707" cy="229.5" r="5.44828" fill="#F2F2F2"/>
<circle cx="127.603" cy="229.5" r="5.44828" fill="#F2F2F2"/>
<circle cx="25.4483" cy="263.552" r="5.44828" fill="#F2F2F2"/>
<circle cx="59.5" cy="263.552" r="5.44828" fill="#F2F2F2"/>
<circle cx="93.5517" cy="263.552" r="5.44828" fill="#F2F2F2"/>
<circle cx="161.655" cy="263.552" r="5.44828" fill="#F2F2F2"/>
<circle cx="195.707" cy="263.552" r="5.44828" fill="#F2F2F2"/>
<circle cx="127.603" cy="263.552" r="5.44828" fill="#F2F2F2"/>
<g filter="url(#filter0_d_11602_430)">
<rect x="20" y="65" width="377" height="95" rx="5" fill="white"/>
<rect x="20.5" y="65.5" width="376" height="94" rx="4.5" stroke="#E0E0E0"/>
</g>
<path d="M114.651 94H113.358L117.097 83.8182H118.369L122.108 94H120.815L117.773 85.429H117.693L114.651 94ZM115.128 90.0227H120.338V91.1165H115.128V90.0227ZM133.717 86.3636L130.893 94H129.7L126.876 86.3636H128.148L130.256 92.4489H130.336L132.444 86.3636H133.717ZM135.265 94V86.3636H136.439V94H135.265ZM135.862 85.0909C135.633 85.0909 135.436 85.013 135.27 84.8572C135.108 84.7015 135.027 84.5142 135.027 84.2955C135.027 84.0767 135.108 83.8894 135.27 83.7337C135.436 83.5779 135.633 83.5 135.862 83.5C136.091 83.5 136.286 83.5779 136.449 83.7337C136.614 83.8894 136.697 84.0767 136.697 84.2955C136.697 84.5142 136.614 84.7015 136.449 84.8572C136.286 85.013 136.091 85.0909 135.862 85.0909ZM141.471 94.1591C140.835 94.1591 140.273 93.9983 139.786 93.6768C139.298 93.352 138.917 92.8946 138.642 92.3047C138.367 91.7114 138.23 91.0104 138.23 90.2017C138.23 89.3996 138.367 88.7036 138.642 88.1136C138.917 87.5237 139.3 87.0679 139.791 86.7464C140.281 86.425 140.848 86.2642 141.491 86.2642C141.988 86.2642 142.381 86.3471 142.669 86.5128C142.961 86.6752 143.183 86.8608 143.335 87.0696C143.491 87.2751 143.612 87.4441 143.698 87.5767H143.798V83.8182H144.971V94H143.838V92.8267H143.698C143.612 92.9659 143.49 93.1416 143.33 93.3537C143.171 93.5625 142.944 93.7498 142.649 93.9155C142.354 94.0779 141.962 94.1591 141.471 94.1591ZM141.63 93.1051C142.101 93.1051 142.499 92.9825 142.823 92.7372C143.148 92.4886 143.395 92.1456 143.564 91.7081C143.733 91.2673 143.818 90.7585 143.818 90.1818C143.818 89.6117 143.735 89.1129 143.569 88.6854C143.403 88.2545 143.158 87.9197 142.833 87.6811C142.508 87.4392 142.107 87.3182 141.63 87.3182C141.133 87.3182 140.719 87.4458 140.387 87.701C140.059 87.9529 139.812 88.2959 139.646 88.7301C139.484 89.161 139.403 89.6449 139.403 90.1818C139.403 90.7254 139.486 91.2192 139.651 91.6634C139.82 92.1042 140.069 92.4555 140.397 92.7173C140.729 92.9759 141.14 93.1051 141.63 93.1051ZM149.53 94.179C149.046 94.179 148.607 94.0878 148.213 93.9055C147.818 93.7199 147.505 93.4531 147.273 93.1051C147.041 92.7538 146.925 92.3295 146.925 91.8324C146.925 91.3949 147.011 91.0402 147.183 90.7685C147.356 90.4934 147.586 90.2779 147.874 90.1222C148.163 89.9664 148.481 89.8504 148.829 89.7741C149.18 89.6946 149.533 89.6316 149.888 89.5852C150.352 89.5256 150.728 89.4808 151.017 89.451C151.308 89.4179 151.52 89.3632 151.653 89.2869C151.789 89.2107 151.857 89.0781 151.857 88.8892V88.8494C151.857 88.3589 151.722 87.9777 151.454 87.706C151.189 87.4342 150.786 87.2983 150.246 87.2983C149.686 87.2983 149.247 87.4209 148.928 87.6662C148.61 87.9115 148.387 88.1733 148.257 88.4517L147.144 88.054C147.343 87.59 147.608 87.2287 147.939 86.9702C148.274 86.7083 148.638 86.526 149.033 86.4233C149.431 86.3172 149.822 86.2642 150.206 86.2642C150.451 86.2642 150.733 86.294 151.051 86.3537C151.373 86.41 151.683 86.5277 151.981 86.7067C152.283 86.8857 152.533 87.1558 152.732 87.517C152.931 87.8783 153.03 88.3622 153.03 88.9688V94H151.857V92.9659H151.797C151.718 93.1316 151.585 93.3089 151.399 93.4979C151.214 93.6868 150.967 93.8475 150.659 93.9801C150.35 94.1127 149.974 94.179 149.53 94.179ZM149.709 93.125C150.173 93.125 150.564 93.0339 150.882 92.8516C151.204 92.6693 151.446 92.4339 151.608 92.1456C151.774 91.8572 151.857 91.554 151.857 91.2358V90.1619C151.807 90.2216 151.698 90.2763 151.529 90.326C151.363 90.3724 151.171 90.4138 150.952 90.4503C150.736 90.4834 150.526 90.5133 150.32 90.5398C150.118 90.563 149.954 90.5829 149.828 90.5994C149.523 90.6392 149.238 90.7038 148.973 90.7933C148.711 90.8795 148.499 91.0104 148.337 91.1861C148.178 91.3584 148.098 91.5937 148.098 91.892C148.098 92.2997 148.249 92.608 148.551 92.8168C148.856 93.0223 149.242 93.125 149.709 93.125ZM162.311 94.1591C161.575 94.1591 160.94 93.9967 160.407 93.6719C159.876 93.3438 159.467 92.8864 159.179 92.2997C158.894 91.7098 158.751 91.0237 158.751 90.2415C158.751 89.4593 158.894 88.7699 159.179 88.1733C159.467 87.5734 159.868 87.1061 160.382 86.7713C160.899 86.4332 161.502 86.2642 162.191 86.2642C162.589 86.2642 162.982 86.3305 163.37 86.4631C163.757 86.5956 164.11 86.8111 164.429 87.1094C164.747 87.4044 165 87.7955 165.189 88.2827C165.378 88.7699 165.473 89.3698 165.473 90.0824V90.5795H159.586V89.5653H164.279C164.279 89.1345 164.193 88.75 164.021 88.4119C163.852 88.0739 163.61 87.8071 163.295 87.6115C162.984 87.416 162.616 87.3182 162.191 87.3182C161.724 87.3182 161.32 87.4342 160.978 87.6662C160.64 87.8949 160.38 88.1932 160.198 88.5611C160.016 88.929 159.924 89.3234 159.924 89.7443V90.4205C159.924 90.9972 160.024 91.486 160.223 91.8871C160.425 92.2848 160.705 92.5881 161.063 92.7969C161.421 93.0024 161.837 93.1051 162.311 93.1051C162.619 93.1051 162.897 93.062 163.146 92.9759C163.398 92.8864 163.615 92.7538 163.797 92.5781C163.98 92.3991 164.12 92.1771 164.22 91.9119L165.353 92.2301C165.234 92.6146 165.033 92.9527 164.752 93.2443C164.47 93.5327 164.122 93.758 163.708 93.9205C163.293 94.0795 162.828 94.1591 162.311 94.1591ZM161.595 85.3295L162.808 83.0227H164.18L162.629 85.3295H161.595ZM174.297 94.1591C173.581 94.1591 172.965 93.9901 172.448 93.652C171.931 93.3139 171.533 92.8482 171.255 92.255C170.976 91.6617 170.837 90.9839 170.837 90.2216C170.837 89.446 170.98 88.7616 171.265 88.1683C171.553 87.5717 171.954 87.1061 172.468 86.7713C172.985 86.4332 173.588 86.2642 174.277 86.2642C174.814 86.2642 175.298 86.3636 175.729 86.5625C176.16 86.7614 176.513 87.0398 176.788 87.3977C177.063 87.7557 177.234 88.1733 177.3 88.6506H176.127C176.037 88.3026 175.838 87.9943 175.53 87.7259C175.225 87.4541 174.814 87.3182 174.297 87.3182C173.84 87.3182 173.439 87.4375 173.094 87.6761C172.753 87.9115 172.486 88.2446 172.294 88.6754C172.105 89.103 172.01 89.6051 172.01 90.1818C172.01 90.7718 172.103 91.2855 172.289 91.723C172.478 92.1605 172.743 92.5002 173.084 92.7422C173.429 92.9841 173.833 93.1051 174.297 93.1051C174.602 93.1051 174.879 93.0521 175.127 92.946C175.376 92.84 175.587 92.6875 175.759 92.4886C175.931 92.2898 176.054 92.0511 176.127 91.7727H177.3C177.234 92.2235 177.07 92.6295 176.808 92.9908C176.549 93.3487 176.206 93.6338 175.779 93.8459C175.355 94.0547 174.861 94.1591 174.297 94.1591ZM182.118 94.1591C181.428 94.1591 180.823 93.995 180.303 93.6669C179.786 93.3388 179.382 92.8797 179.09 92.2898C178.801 91.6998 178.657 91.0104 178.657 90.2216C178.657 89.4261 178.801 88.7318 179.09 88.1385C179.382 87.5452 179.786 87.0845 180.303 86.7564C180.823 86.4283 181.428 86.2642 182.118 86.2642C182.807 86.2642 183.41 86.4283 183.927 86.7564C184.448 87.0845 184.852 87.5452 185.14 88.1385C185.432 88.7318 185.578 89.4261 185.578 90.2216C185.578 91.0104 185.432 91.6998 185.14 92.2898C184.852 92.8797 184.448 93.3388 183.927 93.6669C183.41 93.995 182.807 94.1591 182.118 94.1591ZM182.118 93.1051C182.641 93.1051 183.072 92.9709 183.41 92.7024C183.748 92.4339 183.998 92.081 184.161 91.6435C184.323 91.206 184.404 90.732 184.404 90.2216C184.404 89.7112 184.323 89.2356 184.161 88.7947C183.998 88.3539 183.748 87.9976 183.41 87.7259C183.072 87.4541 182.641 87.3182 182.118 87.3182C181.594 87.3182 181.163 87.4541 180.825 87.7259C180.487 87.9976 180.237 88.3539 180.074 88.7947C179.912 89.2356 179.831 89.7112 179.831 90.2216C179.831 90.732 179.912 91.206 180.074 91.6435C180.237 92.081 180.487 92.4339 180.825 92.7024C181.163 92.9709 181.594 93.1051 182.118 93.1051ZM187.369 94V86.3636H188.502V87.5568H188.602C188.761 87.1491 189.018 86.8326 189.372 86.6072C189.727 86.3786 190.153 86.2642 190.65 86.2642C191.154 86.2642 191.573 86.3786 191.908 86.6072C192.246 86.8326 192.509 87.1491 192.698 87.5568H192.778C192.973 87.1624 193.267 86.8492 193.658 86.6172C194.049 86.3819 194.518 86.2642 195.065 86.2642C195.748 86.2642 196.306 86.478 196.74 86.9055C197.174 87.3298 197.392 87.991 197.392 88.8892V94H196.218V88.8892C196.218 88.3258 196.064 87.9231 195.756 87.6811C195.448 87.4392 195.085 87.3182 194.667 87.3182C194.13 87.3182 193.714 87.4806 193.419 87.8054C193.124 88.1269 192.977 88.5346 192.977 89.0284V94H191.784V88.7699C191.784 88.3357 191.643 87.986 191.361 87.7209C191.079 87.4524 190.716 87.3182 190.272 87.3182C189.967 87.3182 189.682 87.3994 189.417 87.5618C189.155 87.7242 188.943 87.9496 188.781 88.2379C188.622 88.523 188.542 88.8527 188.542 89.2273V94H187.369ZM202.639 94.1591C201.95 94.1591 201.345 93.995 200.824 93.6669C200.307 93.3388 199.903 92.8797 199.611 92.2898C199.323 91.6998 199.179 91.0104 199.179 90.2216C199.179 89.4261 199.323 88.7318 199.611 88.1385C199.903 87.5452 200.307 87.0845 200.824 86.7564C201.345 86.4283 201.95 86.2642 202.639 86.2642C203.328 86.2642 203.932 86.4283 204.449 86.7564C204.969 87.0845 205.373 87.5452 205.662 88.1385C205.953 88.7318 206.099 89.4261 206.099 90.2216C206.099 91.0104 205.953 91.6998 205.662 92.2898C205.373 92.8797 204.969 93.3388 204.449 93.6669C203.932 93.995 203.328 94.1591 202.639 94.1591ZM202.639 93.1051C203.163 93.1051 203.594 92.9709 203.932 92.7024C204.27 92.4339 204.52 92.081 204.682 91.6435C204.845 91.206 204.926 90.732 204.926 90.2216C204.926 89.7112 204.845 89.2356 204.682 88.7947C204.52 88.3539 204.27 87.9976 203.932 87.7259C203.594 87.4541 203.163 87.3182 202.639 87.3182C202.115 87.3182 201.684 87.4541 201.346 87.7259C201.008 87.9976 200.758 88.3539 200.596 88.7947C200.433 89.2356 200.352 89.7112 200.352 90.2216C200.352 90.732 200.433 91.206 200.596 91.6435C200.758 92.081 201.008 92.4339 201.346 92.7024C201.684 92.9709 202.115 93.1051 202.639 93.1051ZM216.64 90.8778V86.3636H217.814V94H216.64V92.7074H216.561C216.382 93.0952 216.103 93.425 215.725 93.6967C215.348 93.9652 214.87 94.0994 214.294 94.0994C213.816 94.0994 213.392 93.995 213.021 93.7862C212.65 93.5741 212.358 93.2559 212.146 92.8317C211.934 92.4041 211.828 91.8655 211.828 91.2159V86.3636H213.001V91.1364C213.001 91.6932 213.157 92.1373 213.468 92.4688C213.783 92.8002 214.184 92.9659 214.672 92.9659C214.963 92.9659 215.26 92.8913 215.561 92.7422C215.866 92.593 216.122 92.3643 216.327 92.0561C216.536 91.7479 216.64 91.3551 216.64 90.8778ZM219.963 94V86.3636H221.096V87.5568H221.195C221.355 87.1491 221.611 86.8326 221.966 86.6072C222.321 86.3786 222.747 86.2642 223.244 86.2642C223.748 86.2642 224.167 86.3786 224.502 86.6072C224.84 86.8326 225.103 87.1491 225.292 87.5568H225.372C225.567 87.1624 225.86 86.8492 226.252 86.6172C226.643 86.3819 227.112 86.2642 227.659 86.2642C228.341 86.2642 228.9 86.478 229.334 86.9055C229.768 87.3298 229.985 87.991 229.985 88.8892V94H228.812V88.8892C228.812 88.3258 228.658 87.9231 228.35 87.6811C228.041 87.4392 227.678 87.3182 227.261 87.3182C226.724 87.3182 226.308 87.4806 226.013 87.8054C225.718 88.1269 225.57 88.5346 225.57 89.0284V94H224.377V88.7699C224.377 88.3357 224.236 87.986 223.955 87.7209C223.673 87.4524 223.31 87.3182 222.866 87.3182C222.561 87.3182 222.276 87.3994 222.011 87.5618C221.749 87.7242 221.537 87.9496 221.374 88.2379C221.215 88.523 221.136 88.8527 221.136 89.2273V94H219.963ZM241.477 88.0739L240.423 88.3722C240.357 88.1965 240.259 88.0258 240.13 87.8601C240.004 87.6911 239.831 87.5518 239.613 87.4425C239.394 87.3331 239.114 87.2784 238.773 87.2784C238.305 87.2784 237.916 87.3861 237.604 87.6016C237.296 87.8137 237.142 88.0838 237.142 88.4119C237.142 88.7036 237.248 88.9339 237.46 89.103C237.672 89.272 238.004 89.4129 238.454 89.5256L239.588 89.804C240.271 89.9697 240.779 90.2232 241.114 90.5646C241.449 90.9027 241.616 91.3385 241.616 91.8722C241.616 92.3097 241.49 92.7008 241.238 93.0455C240.99 93.3902 240.642 93.6619 240.194 93.8608C239.747 94.0597 239.227 94.1591 238.633 94.1591C237.854 94.1591 237.21 93.9901 236.699 93.652C236.189 93.3139 235.866 92.8201 235.73 92.1705L236.844 91.892C236.95 92.303 237.15 92.6113 237.445 92.8168C237.743 93.0223 238.133 93.125 238.613 93.125C239.16 93.125 239.595 93.009 239.916 92.777C240.241 92.5417 240.403 92.2599 240.403 91.9318C240.403 91.6667 240.31 91.4446 240.125 91.2656C239.939 91.0833 239.654 90.9474 239.27 90.858L237.997 90.5597C237.298 90.3939 236.784 90.1371 236.456 89.7891C236.131 89.4377 235.969 88.9986 235.969 88.4716C235.969 88.0407 236.09 87.6596 236.331 87.3281C236.577 86.9967 236.91 86.7365 237.331 86.5476C237.755 86.3587 238.236 86.2642 238.773 86.2642C239.528 86.2642 240.122 86.4299 240.552 86.7614C240.987 87.0928 241.295 87.5303 241.477 88.0739ZM245.63 94.179C245.146 94.179 244.707 94.0878 244.312 93.9055C243.918 93.7199 243.605 93.4531 243.373 93.1051C243.141 92.7538 243.025 92.3295 243.025 91.8324C243.025 91.3949 243.111 91.0402 243.283 90.7685C243.455 90.4934 243.686 90.2779 243.974 90.1222C244.262 89.9664 244.581 89.8504 244.929 89.7741C245.28 89.6946 245.633 89.6316 245.988 89.5852C246.452 89.5256 246.828 89.4808 247.116 89.451C247.408 89.4179 247.62 89.3632 247.752 89.2869C247.888 89.2107 247.956 89.0781 247.956 88.8892V88.8494C247.956 88.3589 247.822 87.9777 247.554 87.706C247.288 87.4342 246.886 87.2983 246.346 87.2983C245.785 87.2983 245.346 87.4209 245.028 87.6662C244.71 87.9115 244.486 88.1733 244.357 88.4517L243.243 88.054C243.442 87.59 243.707 87.2287 244.039 86.9702C244.373 86.7083 244.738 86.526 245.132 86.4233C245.53 86.3172 245.921 86.2642 246.306 86.2642C246.551 86.2642 246.833 86.294 247.151 86.3537C247.472 86.41 247.782 86.5277 248.081 86.7067C248.382 86.8857 248.632 87.1558 248.831 87.517C249.03 87.8783 249.13 88.3622 249.13 88.9688V94H247.956V92.9659H247.897C247.817 93.1316 247.685 93.3089 247.499 93.4979C247.313 93.6868 247.066 93.8475 246.758 93.9801C246.45 94.1127 246.074 94.179 245.63 94.179ZM245.809 93.125C246.273 93.125 246.664 93.0339 246.982 92.8516C247.303 92.6693 247.545 92.4339 247.708 92.1456C247.873 91.8572 247.956 91.554 247.956 91.2358V90.1619C247.907 90.2216 247.797 90.2763 247.628 90.326C247.462 90.3724 247.27 90.4138 247.051 90.4503C246.836 90.4834 246.626 90.5133 246.42 90.5398C246.218 90.563 246.054 90.5829 245.928 90.5994C245.623 90.6392 245.338 90.7038 245.073 90.7933C244.811 90.8795 244.599 91.0104 244.436 91.1861C244.277 91.3584 244.198 91.5937 244.198 91.892C244.198 92.2997 244.349 92.608 244.65 92.8168C244.955 93.0223 245.341 93.125 245.809 93.125ZM252.444 89.4062V94H251.271V86.3636H252.405V87.5568H252.504C252.683 87.169 252.955 86.8575 253.319 86.6222C253.684 86.3835 254.155 86.2642 254.731 86.2642C255.248 86.2642 255.701 86.3703 256.089 86.5824C256.476 86.7912 256.778 87.1094 256.993 87.5369C257.209 87.9612 257.317 88.4981 257.317 89.1477V94H256.143V89.2273C256.143 88.6274 255.988 88.16 255.676 87.8253C255.364 87.4872 254.937 87.3182 254.393 87.3182C254.019 87.3182 253.684 87.3994 253.389 87.5618C253.097 87.7242 252.867 87.9612 252.698 88.2727C252.529 88.5843 252.444 88.9621 252.444 89.4062ZM262.344 94.1591C261.708 94.1591 261.146 93.9983 260.659 93.6768C260.172 93.352 259.79 92.8946 259.515 92.3047C259.24 91.7114 259.103 91.0104 259.103 90.2017C259.103 89.3996 259.24 88.7036 259.515 88.1136C259.79 87.5237 260.173 87.0679 260.664 86.7464C261.154 86.425 261.721 86.2642 262.364 86.2642C262.861 86.2642 263.254 86.3471 263.542 86.5128C263.834 86.6752 264.056 86.8608 264.208 87.0696C264.364 87.2751 264.485 87.4441 264.571 87.5767H264.671V83.8182H265.844V94H264.711V92.8267H264.571C264.485 92.9659 264.363 93.1416 264.203 93.3537C264.044 93.5625 263.817 93.7498 263.522 93.9155C263.227 94.0779 262.835 94.1591 262.344 94.1591ZM262.503 93.1051C262.974 93.1051 263.372 92.9825 263.696 92.7372C264.021 92.4886 264.268 92.1456 264.437 91.7081C264.606 91.2673 264.691 90.7585 264.691 90.1818C264.691 89.6117 264.608 89.1129 264.442 88.6854C264.276 88.2545 264.031 87.9197 263.706 87.6811C263.382 87.4392 262.98 87.3182 262.503 87.3182C262.006 87.3182 261.592 87.4458 261.26 87.701C260.932 87.9529 260.685 88.2959 260.52 88.7301C260.357 89.161 260.276 89.6449 260.276 90.1818C260.276 90.7254 260.359 91.2192 260.525 91.6634C260.694 92.1042 260.942 92.4555 261.27 92.7173C261.602 92.9759 262.013 93.1051 262.503 93.1051ZM272.968 90.8778V86.3636H274.142V94H272.968V92.7074H272.889C272.71 93.0952 272.431 93.425 272.054 93.6967C271.676 93.9652 271.199 94.0994 270.622 94.0994C270.145 94.0994 269.72 93.995 269.349 93.7862C268.978 93.5741 268.686 93.2559 268.474 92.8317C268.262 92.4041 268.156 91.8655 268.156 91.2159V86.3636H269.329V91.1364C269.329 91.6932 269.485 92.1373 269.797 92.4688C270.111 92.8002 270.512 92.9659 271 92.9659C271.291 92.9659 271.588 92.8913 271.89 92.7422C272.194 92.593 272.45 92.3643 272.655 92.0561C272.864 91.7479 272.968 91.3551 272.968 90.8778ZM276.291 94V86.3636H277.464V94H276.291ZM276.35 85.3295L277.563 83.0227H278.936L277.384 85.3295H276.35ZM282.715 94.1591C281.999 94.1591 281.383 93.9901 280.866 93.652C280.349 93.3139 279.951 92.8482 279.673 92.255C279.394 91.6617 279.255 90.9839 279.255 90.2216C279.255 89.446 279.397 88.7616 279.683 88.1683C279.971 87.5717 280.372 87.1061 280.886 86.7713C281.403 86.4332 282.006 86.2642 282.695 86.2642C283.232 86.2642 283.716 86.3636 284.147 86.5625C284.578 86.7614 284.931 87.0398 285.206 87.3977C285.481 87.7557 285.652 88.1733 285.718 88.6506H284.545C284.455 88.3026 284.256 87.9943 283.948 87.7259C283.643 87.4541 283.232 87.3182 282.715 87.3182C282.258 87.3182 281.857 87.4375 281.512 87.6761C281.171 87.9115 280.904 88.2446 280.712 88.6754C280.523 89.103 280.428 89.6051 280.428 90.1818C280.428 90.7718 280.521 91.2855 280.707 91.723C280.896 92.1605 281.161 92.5002 281.502 92.7422C281.847 92.9841 282.251 93.1051 282.715 93.1051C283.02 93.1051 283.297 93.0521 283.545 92.946C283.794 92.84 284.004 92.6875 284.177 92.4886C284.349 92.2898 284.472 92.0511 284.545 91.7727H285.718C285.652 92.2235 285.488 92.6295 285.226 92.9908C284.967 93.3487 284.624 93.6338 284.197 93.8459C283.772 94.0547 283.279 94.1591 282.715 94.1591ZM288.607 89.4062V94H287.433V83.8182H288.607V87.5568H288.706C288.885 87.1624 289.153 86.8492 289.511 86.6172C289.873 86.3819 290.353 86.2642 290.953 86.2642C291.473 86.2642 291.929 86.3686 292.32 86.5774C292.711 86.7829 293.015 87.0994 293.23 87.527C293.449 87.9512 293.558 88.4915 293.558 89.1477V94H292.385V89.2273C292.385 88.6207 292.228 88.1518 291.913 87.8203C291.601 87.4856 291.169 87.3182 290.615 87.3182C290.231 87.3182 289.886 87.3994 289.581 87.5618C289.279 87.7242 289.041 87.9612 288.865 88.2727C288.693 88.5843 288.607 88.9621 288.607 89.4062ZM298.906 94.1591C298.171 94.1591 297.536 93.9967 297.002 93.6719C296.472 93.3438 296.063 92.8864 295.774 92.2997C295.489 91.7098 295.347 91.0237 295.347 90.2415C295.347 89.4593 295.489 88.7699 295.774 88.1733C296.063 87.5734 296.464 87.1061 296.977 86.7713C297.494 86.4332 298.098 86.2642 298.787 86.2642C299.185 86.2642 299.578 86.3305 299.965 86.4631C300.353 86.5956 300.706 86.8111 301.024 87.1094C301.343 87.4044 301.596 87.7955 301.785 88.2827C301.974 88.7699 302.068 89.3698 302.068 90.0824V90.5795H296.182V89.5653H300.875C300.875 89.1345 300.789 88.75 300.617 88.4119C300.448 88.0739 300.206 87.8071 299.891 87.6115C299.579 87.416 299.211 87.3182 298.787 87.3182C298.32 87.3182 297.915 87.4342 297.574 87.6662C297.236 87.8949 296.976 88.1932 296.794 88.5611C296.611 88.929 296.52 89.3234 296.52 89.7443V90.4205C296.52 90.9972 296.619 91.486 296.818 91.8871C297.021 92.2848 297.301 92.5881 297.659 92.7969C298.017 93.0024 298.432 93.1051 298.906 93.1051C299.215 93.1051 299.493 93.062 299.742 92.9759C299.994 92.8864 300.211 92.7538 300.393 92.5781C300.575 92.3991 300.716 92.1771 300.816 91.9119L301.949 92.2301C301.83 92.6146 301.629 92.9527 301.347 93.2443C301.066 93.5327 300.718 93.758 300.303 93.9205C299.889 94.0795 299.423 94.1591 298.906 94.1591ZM305.603 92.608L305.524 93.1449C305.467 93.5227 305.381 93.9271 305.265 94.358C305.152 94.7888 305.035 95.1948 304.912 95.576C304.789 95.9571 304.688 96.2604 304.609 96.4858H303.714C303.757 96.2737 303.813 95.9936 303.883 95.6456C303.953 95.2976 304.022 94.9081 304.092 94.4773C304.165 94.0497 304.224 93.6122 304.271 93.1648L304.33 92.608H305.603ZM314.916 94.1591C314.18 94.1591 313.546 93.9967 313.012 93.6719C312.482 93.3438 312.072 92.8864 311.784 92.2997C311.499 91.7098 311.357 91.0237 311.357 90.2415C311.357 89.4593 311.499 88.7699 311.784 88.1733C312.072 87.5734 312.473 87.1061 312.987 86.7713C313.504 86.4332 314.107 86.2642 314.797 86.2642C315.195 86.2642 315.587 86.3305 315.975 86.4631C316.363 86.5956 316.716 86.8111 317.034 87.1094C317.352 87.4044 317.606 87.7955 317.795 88.2827C317.984 88.7699 318.078 89.3698 318.078 90.0824V90.5795H312.192V89.5653H316.885C316.885 89.1345 316.799 88.75 316.626 88.4119C316.457 88.0739 316.215 87.8071 315.901 87.6115C315.589 87.416 315.221 87.3182 314.797 87.3182C314.33 87.3182 313.925 87.4342 313.584 87.6662C313.246 87.8949 312.986 88.1932 312.803 88.5611C312.621 88.929 312.53 89.3234 312.53 89.7443V90.4205C312.53 90.9972 312.629 91.486 312.828 91.8871C313.03 92.2848 313.31 92.5881 313.668 92.7969C314.026 93.0024 314.442 93.1051 314.916 93.1051C315.224 93.1051 315.503 93.062 315.751 92.9759C316.003 92.8864 316.22 92.7538 316.403 92.5781C316.585 92.3991 316.726 92.1771 316.825 91.9119L317.959 92.2301C317.839 92.6146 317.639 92.9527 317.357 93.2443C317.076 93.5327 316.728 93.758 316.313 93.9205C315.899 94.0795 315.433 94.1591 314.916 94.1591ZM314.2 85.3295L315.413 83.0227H316.786L315.234 85.3295H314.2ZM323.8 96.8636V86.3636H324.934V87.5767H325.073C325.159 87.4441 325.279 87.2751 325.431 87.0696C325.587 86.8608 325.809 86.6752 326.097 86.5128C326.389 86.3471 326.783 86.2642 327.281 86.2642C327.924 86.2642 328.49 86.425 328.981 86.7464C329.471 87.0679 329.854 87.5237 330.129 88.1136C330.404 88.7036 330.542 89.3996 330.542 90.2017C330.542 91.0104 330.404 91.7114 330.129 92.3047C329.854 92.8946 329.473 93.352 328.986 93.6768C328.499 93.9983 327.937 94.1591 327.3 94.1591C326.81 94.1591 326.417 94.0779 326.122 93.9155C325.827 93.7498 325.6 93.5625 325.441 93.3537C325.282 93.1416 325.159 92.9659 325.073 92.8267H324.974V96.8636H323.8ZM324.954 90.1818C324.954 90.7585 325.038 91.2673 325.207 91.7081C325.376 92.1456 325.623 92.4886 325.948 92.7372C326.273 92.9825 326.671 93.1051 327.141 93.1051C327.632 93.1051 328.041 92.9759 328.369 92.7173C328.701 92.4555 328.949 92.1042 329.115 91.6634C329.284 91.2192 329.369 90.7254 329.369 90.1818C329.369 89.6449 329.286 89.161 329.12 88.7301C328.958 88.2959 328.711 87.9529 328.379 87.701C328.051 87.4458 327.638 87.3182 327.141 87.3182C326.664 87.3182 326.263 87.4392 325.938 87.6811C325.613 87.9197 325.368 88.2545 325.202 88.6854C325.037 89.1129 324.954 89.6117 324.954 90.1818ZM332.332 94V86.3636H333.465V87.517H333.545C333.684 87.1392 333.936 86.8326 334.3 86.5973C334.665 86.362 335.076 86.2443 335.533 86.2443C335.62 86.2443 335.727 86.246 335.857 86.2493C335.986 86.2526 336.084 86.2576 336.15 86.2642V87.4574C336.11 87.4474 336.019 87.4325 335.876 87.4126C335.737 87.3894 335.59 87.3778 335.434 87.3778C335.063 87.3778 334.731 87.4557 334.44 87.6115C334.151 87.764 333.923 87.9761 333.754 88.2479C333.588 88.5163 333.505 88.8229 333.505 89.1676V94H332.332ZM340.51 94.1591C339.774 94.1591 339.139 93.9967 338.606 93.6719C338.076 93.3438 337.666 92.8864 337.378 92.2997C337.093 91.7098 336.95 91.0237 336.95 90.2415C336.95 89.4593 337.093 88.7699 337.378 88.1733C337.666 87.5734 338.067 87.1061 338.581 86.7713C339.098 86.4332 339.701 86.2642 340.391 86.2642C340.788 86.2642 341.181 86.3305 341.569 86.4631C341.957 86.5956 342.31 86.8111 342.628 87.1094C342.946 87.4044 343.2 87.7955 343.388 88.2827C343.577 88.7699 343.672 89.3698 343.672 90.0824V90.5795H337.786V89.5653H342.479C342.479 89.1345 342.393 88.75 342.22 88.4119C342.051 88.0739 341.809 87.8071 341.494 87.6115C341.183 87.416 340.815 87.3182 340.391 87.3182C339.923 87.3182 339.519 87.4342 339.178 87.6662C338.839 87.8949 338.579 88.1932 338.397 88.5611C338.215 88.929 338.124 89.3234 338.124 89.7443V90.4205C338.124 90.9972 338.223 91.486 338.422 91.8871C338.624 92.2848 338.904 92.5881 339.262 92.7969C339.62 93.0024 340.036 93.1051 340.51 93.1051C340.818 93.1051 341.097 93.062 341.345 92.9759C341.597 92.8864 341.814 92.7538 341.996 92.5781C342.179 92.3991 342.32 92.1771 342.419 91.9119L343.553 92.2301C343.433 92.6146 343.233 92.9527 342.951 93.2443C342.669 93.5327 342.321 93.758 341.907 93.9205C341.493 94.0795 341.027 94.1591 340.51 94.1591ZM348.559 94.1591C347.843 94.1591 347.227 93.9901 346.71 93.652C346.192 93.3139 345.795 92.8482 345.516 92.255C345.238 91.6617 345.099 90.9839 345.099 90.2216C345.099 89.446 345.241 88.7616 345.526 88.1683C345.815 87.5717 346.216 87.1061 346.729 86.7713C347.246 86.4332 347.85 86.2642 348.539 86.2642C349.076 86.2642 349.56 86.3636 349.991 86.5625C350.422 86.7614 350.775 87.0398 351.05 87.3977C351.325 87.7557 351.496 88.1733 351.562 88.6506H350.388C350.299 88.3026 350.1 87.9943 349.792 87.7259C349.487 87.4541 349.076 87.3182 348.559 87.3182C348.102 87.3182 347.701 87.4375 347.356 87.6761C347.014 87.9115 346.748 88.2446 346.555 88.6754C346.366 89.103 346.272 89.6051 346.272 90.1818C346.272 90.7718 346.365 91.2855 346.55 91.723C346.739 92.1605 347.004 92.5002 347.346 92.7422C347.691 92.9841 348.095 93.1051 348.559 93.1051C348.864 93.1051 349.141 93.0521 349.389 92.946C349.638 92.84 349.848 92.6875 350.021 92.4886C350.193 92.2898 350.316 92.0511 350.388 91.7727H351.562C351.496 92.2235 351.331 92.6295 351.07 92.9908C350.811 93.3487 350.468 93.6338 350.04 93.8459C349.616 94.0547 349.122 94.1591 348.559 94.1591ZM353.277 94V86.3636H354.45V94H353.277ZM353.874 85.0909C353.645 85.0909 353.448 85.013 353.282 84.8572C353.12 84.7015 353.038 84.5142 353.038 84.2955C353.038 84.0767 353.12 83.8894 353.282 83.7337C353.448 83.5779 353.645 83.5 353.874 83.5C354.102 83.5 354.298 83.5779 354.46 83.7337C354.626 83.8894 354.709 84.0767 354.709 84.2955C354.709 84.5142 354.626 84.7015 354.46 84.8572C354.298 85.013 354.102 85.0909 353.874 85.0909ZM362.008 88.0739L360.954 88.3722C360.888 88.1965 360.79 88.0258 360.661 87.8601C360.535 87.6911 360.363 87.5518 360.144 87.4425C359.925 87.3331 359.645 87.2784 359.304 87.2784C358.836 87.2784 358.447 87.3861 358.135 87.6016C357.827 87.8137 357.673 88.0838 357.673 88.4119C357.673 88.7036 357.779 88.9339 357.991 89.103C358.203 89.272 358.535 89.4129 358.986 89.5256L360.119 89.804C360.802 89.9697 361.311 90.2232 361.645 90.5646C361.98 90.9027 362.148 91.3385 362.148 91.8722C362.148 92.3097 362.022 92.7008 361.77 93.0455C361.521 93.3902 361.173 93.6619 360.726 93.8608C360.278 94.0597 359.758 94.1591 359.165 94.1591C358.386 94.1591 357.741 93.9901 357.231 93.652C356.72 93.3139 356.397 92.8201 356.261 92.1705L357.375 91.892C357.481 92.303 357.681 92.6113 357.976 92.8168C358.275 93.0223 358.664 93.125 359.145 93.125C359.692 93.125 360.126 93.009 360.447 92.777C360.772 92.5417 360.934 92.2599 360.934 91.9318C360.934 91.6667 360.842 91.4446 360.656 91.2656C360.47 91.0833 360.185 90.9474 359.801 90.858L358.528 90.5597C357.829 90.3939 357.315 90.1371 356.987 89.7891C356.662 89.4377 356.5 88.9986 356.5 88.4716C356.5 88.0407 356.621 87.6596 356.863 87.3281C357.108 86.9967 357.441 86.7365 357.862 86.5476C358.286 86.3587 358.767 86.2642 359.304 86.2642C360.059 86.2642 360.653 86.4299 361.084 86.7614C361.518 87.0928 361.826 87.5303 362.008 88.0739ZM367.016 94.1591C366.327 94.1591 365.722 93.995 365.201 93.6669C364.684 93.3388 364.28 92.8797 363.988 92.2898C363.7 91.6998 363.556 91.0104 363.556 90.2216C363.556 89.4261 363.7 88.7318 363.988 88.1385C364.28 87.5452 364.684 87.0845 365.201 86.7564C365.722 86.4283 366.327 86.2642 367.016 86.2642C367.705 86.2642 368.309 86.4283 368.826 86.7564C369.346 87.0845 369.75 87.5452 370.039 88.1385C370.33 88.7318 370.476 89.4261 370.476 90.2216C370.476 91.0104 370.33 91.6998 370.039 92.2898C369.75 92.8797 369.346 93.3388 368.826 93.6669C368.309 93.995 367.705 94.1591 367.016 94.1591ZM367.016 93.1051C367.54 93.1051 367.971 92.9709 368.309 92.7024C368.647 92.4339 368.897 92.081 369.059 91.6435C369.222 91.206 369.303 90.732 369.303 90.2216C369.303 89.7112 369.222 89.2356 369.059 88.7947C368.897 88.3539 368.647 87.9976 368.309 87.7259C367.971 87.4541 367.54 87.3182 367.016 87.3182C366.492 87.3182 366.061 87.4541 365.723 87.7259C365.385 87.9976 365.135 88.3539 364.973 88.7947C364.81 89.2356 364.729 89.7112 364.729 90.2216C364.729 90.732 364.81 91.206 364.973 91.6435C365.135 92.081 365.385 92.4339 365.723 92.7024C366.061 92.9709 366.492 93.1051 367.016 93.1051ZM114.074 116V108.364H115.207V109.517H115.287C115.426 109.139 115.678 108.833 116.043 108.597C116.407 108.362 116.818 108.244 117.276 108.244C117.362 108.244 117.469 108.246 117.599 108.249C117.728 108.253 117.826 108.258 117.892 108.264V109.457C117.852 109.447 117.761 109.433 117.619 109.413C117.479 109.389 117.332 109.378 117.176 109.378C116.805 109.378 116.473 109.456 116.182 109.612C115.893 109.764 115.665 109.976 115.496 110.248C115.33 110.516 115.247 110.823 115.247 111.168V116H114.074ZM122.252 116.159C121.516 116.159 120.882 115.997 120.348 115.672C119.818 115.344 119.408 114.886 119.12 114.3C118.835 113.71 118.692 113.024 118.692 112.241C118.692 111.459 118.835 110.77 119.12 110.173C119.408 109.573 119.809 109.106 120.323 108.771C120.84 108.433 121.443 108.264 122.133 108.264C122.531 108.264 122.923 108.33 123.311 108.463C123.699 108.596 124.052 108.811 124.37 109.109C124.688 109.404 124.942 109.795 125.131 110.283C125.32 110.77 125.414 111.37 125.414 112.082V112.58H119.528V111.565H124.221C124.221 111.134 124.135 110.75 123.962 110.412C123.793 110.074 123.551 109.807 123.237 109.612C122.925 109.416 122.557 109.318 122.133 109.318C121.665 109.318 121.261 109.434 120.92 109.666C120.582 109.895 120.321 110.193 120.139 110.561C119.957 110.929 119.866 111.323 119.866 111.744V112.42C119.866 112.997 119.965 113.486 120.164 113.887C120.366 114.285 120.646 114.588 121.004 114.797C121.362 115.002 121.778 115.105 122.252 115.105C122.56 115.105 122.839 115.062 123.087 114.976C123.339 114.886 123.556 114.754 123.739 114.578C123.921 114.399 124.062 114.177 124.161 113.912L125.295 114.23C125.175 114.615 124.975 114.953 124.693 115.244C124.411 115.533 124.063 115.758 123.649 115.92C123.235 116.08 122.769 116.159 122.252 116.159ZM130.301 116.159C129.585 116.159 128.969 115.99 128.452 115.652C127.935 115.314 127.537 114.848 127.259 114.255C126.98 113.662 126.841 112.984 126.841 112.222C126.841 111.446 126.983 110.762 127.268 110.168C127.557 109.572 127.958 109.106 128.472 108.771C128.989 108.433 129.592 108.264 130.281 108.264C130.818 108.264 131.302 108.364 131.733 108.562C132.164 108.761 132.517 109.04 132.792 109.398C133.067 109.756 133.238 110.173 133.304 110.651H132.131C132.041 110.303 131.842 109.994 131.534 109.726C131.229 109.454 130.818 109.318 130.301 109.318C129.844 109.318 129.443 109.437 129.098 109.676C128.757 109.911 128.49 110.245 128.298 110.675C128.109 111.103 128.014 111.605 128.014 112.182C128.014 112.772 128.107 113.286 128.293 113.723C128.482 114.161 128.747 114.5 129.088 114.742C129.433 114.984 129.837 115.105 130.301 115.105C130.606 115.105 130.883 115.052 131.131 114.946C131.38 114.84 131.59 114.688 131.763 114.489C131.935 114.29 132.058 114.051 132.131 113.773H133.304C133.238 114.223 133.074 114.629 132.812 114.991C132.553 115.349 132.21 115.634 131.783 115.846C131.358 116.055 130.865 116.159 130.301 116.159ZM136.192 111.406V116H135.019V105.818H136.192V109.557H136.292C136.471 109.162 136.739 108.849 137.097 108.617C137.459 108.382 137.939 108.264 138.539 108.264C139.059 108.264 139.515 108.369 139.906 108.577C140.297 108.783 140.601 109.099 140.816 109.527C141.035 109.951 141.144 110.491 141.144 111.148V116H139.971V111.227C139.971 110.621 139.813 110.152 139.499 109.82C139.187 109.486 138.754 109.318 138.201 109.318C137.817 109.318 137.472 109.399 137.167 109.562C136.865 109.724 136.627 109.961 136.451 110.273C136.279 110.584 136.192 110.962 136.192 111.406ZM146.492 116.159C145.757 116.159 145.122 115.997 144.588 115.672C144.058 115.344 143.649 114.886 143.36 114.3C143.075 113.71 142.933 113.024 142.933 112.241C142.933 111.459 143.075 110.77 143.36 110.173C143.649 109.573 144.05 109.106 144.563 108.771C145.08 108.433 145.684 108.264 146.373 108.264C146.771 108.264 147.164 108.33 147.551 108.463C147.939 108.596 148.292 108.811 148.61 109.109C148.928 109.404 149.182 109.795 149.371 110.283C149.56 110.77 149.654 111.37 149.654 112.082V112.58H143.768V111.565H148.461C148.461 111.134 148.375 110.75 148.203 110.412C148.034 110.074 147.792 109.807 147.477 109.612C147.165 109.416 146.797 109.318 146.373 109.318C145.906 109.318 145.501 109.434 145.16 109.666C144.822 109.895 144.562 110.193 144.379 110.561C144.197 110.929 144.106 111.323 144.106 111.744V112.42C144.106 112.997 144.205 113.486 144.404 113.887C144.606 114.285 144.887 114.588 145.244 114.797C145.602 115.002 146.018 115.105 146.492 115.105C146.801 115.105 147.079 115.062 147.328 114.976C147.579 114.886 147.797 114.754 147.979 114.578C148.161 114.399 148.302 114.177 148.401 113.912L149.535 114.23C149.416 114.615 149.215 114.953 148.933 115.244C148.652 115.533 148.304 115.758 147.889 115.92C147.475 116.08 147.009 116.159 146.492 116.159ZM153.686 116.179C153.202 116.179 152.763 116.088 152.369 115.906C151.974 115.72 151.661 115.453 151.429 115.105C151.197 114.754 151.081 114.33 151.081 113.832C151.081 113.395 151.167 113.04 151.34 112.768C151.512 112.493 151.742 112.278 152.031 112.122C152.319 111.966 152.637 111.85 152.985 111.774C153.337 111.695 153.69 111.632 154.044 111.585C154.508 111.526 154.884 111.481 155.173 111.451C155.464 111.418 155.677 111.363 155.809 111.287C155.945 111.211 156.013 111.078 156.013 110.889V110.849C156.013 110.359 155.879 109.978 155.61 109.706C155.345 109.434 154.942 109.298 154.402 109.298C153.842 109.298 153.403 109.421 153.085 109.666C152.767 109.911 152.543 110.173 152.414 110.452L151.3 110.054C151.499 109.59 151.764 109.229 152.095 108.97C152.43 108.708 152.795 108.526 153.189 108.423C153.587 108.317 153.978 108.264 154.362 108.264C154.608 108.264 154.889 108.294 155.208 108.354C155.529 108.41 155.839 108.528 156.137 108.707C156.439 108.886 156.689 109.156 156.888 109.517C157.087 109.878 157.186 110.362 157.186 110.969V116H156.013V114.966H155.953C155.874 115.132 155.741 115.309 155.556 115.498C155.37 115.687 155.123 115.848 154.815 115.98C154.507 116.113 154.13 116.179 153.686 116.179ZM153.865 115.125C154.329 115.125 154.72 115.034 155.039 114.852C155.36 114.669 155.602 114.434 155.764 114.146C155.93 113.857 156.013 113.554 156.013 113.236V112.162C155.963 112.222 155.854 112.276 155.685 112.326C155.519 112.372 155.327 112.414 155.108 112.45C154.893 112.483 154.682 112.513 154.477 112.54C154.275 112.563 154.11 112.583 153.985 112.599C153.68 112.639 153.395 112.704 153.129 112.793C152.868 112.879 152.655 113.01 152.493 113.186C152.334 113.358 152.254 113.594 152.254 113.892C152.254 114.3 152.405 114.608 152.707 114.817C153.012 115.022 153.398 115.125 153.865 115.125ZM153.905 107.33L155.118 105.023H156.49L154.939 107.33H153.905ZM163.703 111.088V112.182H159.248V111.088H163.703ZM166.941 105.818V116H165.767V105.818H166.941ZM171.337 116.179C170.853 116.179 170.414 116.088 170.019 115.906C169.625 115.72 169.312 115.453 169.08 115.105C168.848 114.754 168.732 114.33 168.732 113.832C168.732 113.395 168.818 113.04 168.99 112.768C169.162 112.493 169.393 112.278 169.681 112.122C169.969 111.966 170.288 111.85 170.636 111.774C170.987 111.695 171.34 111.632 171.695 111.585C172.159 111.526 172.535 111.481 172.823 111.451C173.115 111.418 173.327 111.363 173.46 111.287C173.595 111.211 173.663 111.078 173.663 110.889V110.849C173.663 110.359 173.529 109.978 173.261 109.706C172.996 109.434 172.593 109.298 172.053 109.298C171.492 109.298 171.053 109.421 170.735 109.666C170.417 109.911 170.193 110.173 170.064 110.452L168.95 110.054C169.149 109.59 169.414 109.229 169.746 108.97C170.08 108.708 170.445 108.526 170.839 108.423C171.237 108.317 171.628 108.264 172.013 108.264C172.258 108.264 172.54 108.294 172.858 108.354C173.179 108.41 173.489 108.528 173.788 108.707C174.089 108.886 174.339 109.156 174.538 109.517C174.737 109.878 174.837 110.362 174.837 110.969V116H173.663V114.966H173.604C173.524 115.132 173.392 115.309 173.206 115.498C173.02 115.687 172.773 115.848 172.465 115.98C172.157 116.113 171.781 116.179 171.337 116.179ZM171.516 115.125C171.98 115.125 172.371 115.034 172.689 114.852C173.01 114.669 173.252 114.434 173.415 114.146C173.58 113.857 173.663 113.554 173.663 113.236V112.162C173.614 112.222 173.504 112.276 173.335 112.326C173.17 112.372 172.977 112.414 172.759 112.45C172.543 112.483 172.333 112.513 172.127 112.54C171.925 112.563 171.761 112.583 171.635 112.599C171.33 112.639 171.045 112.704 170.78 112.793C170.518 112.879 170.306 113.01 170.143 113.186C169.984 113.358 169.905 113.594 169.905 113.892C169.905 114.3 170.056 114.608 170.357 114.817C170.662 115.022 171.048 115.125 171.516 115.125ZM184.018 116.159C183.302 116.159 182.686 115.99 182.169 115.652C181.651 115.314 181.254 114.848 180.975 114.255C180.697 113.662 180.558 112.984 180.558 112.222C180.558 111.446 180.7 110.762 180.985 110.168C181.274 109.572 181.675 109.106 182.188 108.771C182.705 108.433 183.309 108.264 183.998 108.264C184.535 108.264 185.019 108.364 185.45 108.562C185.881 108.761 186.234 109.04 186.509 109.398C186.784 109.756 186.954 110.173 187.021 110.651H185.847C185.758 110.303 185.559 109.994 185.251 109.726C184.946 109.454 184.535 109.318 184.018 109.318C183.561 109.318 183.16 109.437 182.815 109.676C182.473 109.911 182.207 110.245 182.014 110.675C181.825 111.103 181.731 111.605 181.731 112.182C181.731 112.772 181.824 113.286 182.009 113.723C182.198 114.161 182.463 114.5 182.805 114.742C183.15 114.984 183.554 115.105 184.018 115.105C184.323 115.105 184.6 115.052 184.848 114.946C185.097 114.84 185.307 114.688 185.48 114.489C185.652 114.29 185.775 114.051 185.847 113.773H187.021C186.954 114.223 186.79 114.629 186.529 114.991C186.27 115.349 185.927 115.634 185.499 115.846C185.075 116.055 184.581 116.159 184.018 116.159ZM191.838 116.159C191.149 116.159 190.544 115.995 190.024 115.667C189.507 115.339 189.102 114.88 188.811 114.29C188.522 113.7 188.378 113.01 188.378 112.222C188.378 111.426 188.522 110.732 188.811 110.138C189.102 109.545 189.507 109.085 190.024 108.756C190.544 108.428 191.149 108.264 191.838 108.264C192.528 108.264 193.131 108.428 193.648 108.756C194.168 109.085 194.573 109.545 194.861 110.138C195.153 110.732 195.298 111.426 195.298 112.222C195.298 113.01 195.153 113.7 194.861 114.29C194.573 114.88 194.168 115.339 193.648 115.667C193.131 115.995 192.528 116.159 191.838 116.159ZM191.838 115.105C192.362 115.105 192.793 114.971 193.131 114.702C193.469 114.434 193.719 114.081 193.882 113.643C194.044 113.206 194.125 112.732 194.125 112.222C194.125 111.711 194.044 111.236 193.882 110.795C193.719 110.354 193.469 109.998 193.131 109.726C192.793 109.454 192.362 109.318 191.838 109.318C191.315 109.318 190.884 109.454 190.546 109.726C190.208 109.998 189.957 110.354 189.795 110.795C189.633 111.236 189.551 111.711 189.551 112.222C189.551 112.732 189.633 113.206 189.795 113.643C189.957 114.081 190.208 114.434 190.546 114.702C190.884 114.971 191.315 115.105 191.838 115.105ZM197.089 116V108.364H198.223V109.557H198.322C198.482 109.149 198.738 108.833 199.093 108.607C199.448 108.379 199.874 108.264 200.371 108.264C200.875 108.264 201.294 108.379 201.629 108.607C201.967 108.833 202.23 109.149 202.419 109.557H202.499C202.694 109.162 202.987 108.849 203.379 108.617C203.77 108.382 204.239 108.264 204.786 108.264C205.468 108.264 206.027 108.478 206.461 108.906C206.895 109.33 207.112 109.991 207.112 110.889V116H205.939V110.889C205.939 110.326 205.785 109.923 205.477 109.681C205.168 109.439 204.805 109.318 204.388 109.318C203.851 109.318 203.435 109.481 203.14 109.805C202.845 110.127 202.697 110.535 202.697 111.028V116H201.504V110.77C201.504 110.336 201.363 109.986 201.082 109.721C200.8 109.452 200.437 109.318 199.993 109.318C199.688 109.318 199.403 109.399 199.138 109.562C198.876 109.724 198.664 109.95 198.501 110.238C198.342 110.523 198.263 110.853 198.263 111.227V116H197.089ZM216.297 116.159C215.608 116.159 215.003 115.995 214.483 115.667C213.966 115.339 213.561 114.88 213.27 114.29C212.981 113.7 212.837 113.01 212.837 112.222C212.837 111.426 212.981 110.732 213.27 110.138C213.561 109.545 213.966 109.085 214.483 108.756C215.003 108.428 215.608 108.264 216.297 108.264C216.987 108.264 217.59 108.428 218.107 108.756C218.627 109.085 219.032 109.545 219.32 110.138C219.612 110.732 219.757 111.426 219.757 112.222C219.757 113.01 219.612 113.7 219.32 114.29C219.032 114.88 218.627 115.339 218.107 115.667C217.59 115.995 216.987 116.159 216.297 116.159ZM216.297 115.105C216.821 115.105 217.252 114.971 217.59 114.702C217.928 114.434 218.178 114.081 218.341 113.643C218.503 113.206 218.584 112.732 218.584 112.222C218.584 111.711 218.503 111.236 218.341 110.795C218.178 110.354 217.928 109.998 217.59 109.726C217.252 109.454 216.821 109.318 216.297 109.318C215.774 109.318 215.343 109.454 215.005 109.726C214.667 109.998 214.416 110.354 214.254 110.795C214.092 111.236 214.01 111.711 214.01 112.222C214.01 112.732 214.092 113.206 214.254 113.643C214.416 114.081 214.667 114.434 215.005 114.702C215.343 114.971 215.774 115.105 216.297 115.105ZM226.958 110.074L225.904 110.372C225.837 110.196 225.74 110.026 225.61 109.86C225.484 109.691 225.312 109.552 225.093 109.442C224.874 109.333 224.594 109.278 224.253 109.278C223.786 109.278 223.396 109.386 223.085 109.602C222.776 109.814 222.622 110.084 222.622 110.412C222.622 110.704 222.728 110.934 222.941 111.103C223.153 111.272 223.484 111.413 223.935 111.526L225.068 111.804C225.751 111.97 226.26 112.223 226.595 112.565C226.929 112.903 227.097 113.339 227.097 113.872C227.097 114.31 226.971 114.701 226.719 115.045C226.47 115.39 226.122 115.662 225.675 115.861C225.227 116.06 224.707 116.159 224.114 116.159C223.335 116.159 222.69 115.99 222.18 115.652C221.669 115.314 221.346 114.82 221.21 114.17L222.324 113.892C222.43 114.303 222.631 114.611 222.926 114.817C223.224 115.022 223.613 115.125 224.094 115.125C224.641 115.125 225.075 115.009 225.396 114.777C225.721 114.542 225.884 114.26 225.884 113.932C225.884 113.667 225.791 113.445 225.605 113.266C225.42 113.083 225.135 112.947 224.75 112.858L223.477 112.56C222.778 112.394 222.264 112.137 221.936 111.789C221.611 111.438 221.449 110.999 221.449 110.472C221.449 110.041 221.57 109.66 221.812 109.328C222.057 108.997 222.39 108.737 222.811 108.548C223.235 108.359 223.716 108.264 224.253 108.264C225.009 108.264 225.602 108.43 226.033 108.761C226.467 109.093 226.775 109.53 226.958 110.074ZM114.074 138V130.364H115.247V138H114.074ZM114.67 129.091C114.442 129.091 114.245 129.013 114.079 128.857C113.916 128.701 113.835 128.514 113.835 128.295C113.835 128.077 113.916 127.889 114.079 127.734C114.245 127.578 114.442 127.5 114.67 127.5C114.899 127.5 115.095 127.578 115.257 127.734C115.423 127.889 115.506 128.077 115.506 128.295C115.506 128.514 115.423 128.701 115.257 128.857C115.095 129.013 114.899 129.091 114.67 129.091ZM118.569 133.406V138H117.396V130.364H118.53V131.557H118.629C118.808 131.169 119.08 130.857 119.444 130.622C119.809 130.384 120.28 130.264 120.856 130.264C121.373 130.264 121.826 130.37 122.214 130.582C122.601 130.791 122.903 131.109 123.118 131.537C123.334 131.961 123.442 132.498 123.442 133.148V138H122.268V133.227C122.268 132.627 122.113 132.16 121.801 131.825C121.489 131.487 121.062 131.318 120.518 131.318C120.144 131.318 119.809 131.399 119.514 131.562C119.222 131.724 118.992 131.961 118.823 132.273C118.654 132.584 118.569 132.962 118.569 133.406ZM128.668 141.023C128.101 141.023 127.614 140.95 127.206 140.804C126.799 140.661 126.459 140.473 126.187 140.237C125.919 140.005 125.705 139.757 125.546 139.491L126.48 138.835C126.587 138.974 126.721 139.134 126.883 139.312C127.046 139.495 127.268 139.652 127.549 139.785C127.834 139.921 128.207 139.989 128.668 139.989C129.284 139.989 129.793 139.839 130.194 139.541C130.595 139.243 130.796 138.776 130.796 138.139V136.588H130.696C130.61 136.727 130.488 136.9 130.328 137.105C130.173 137.307 129.947 137.488 129.652 137.647C129.361 137.803 128.966 137.881 128.469 137.881C127.853 137.881 127.299 137.735 126.809 137.443C126.321 137.152 125.935 136.727 125.65 136.17C125.368 135.614 125.228 134.937 125.228 134.142C125.228 133.36 125.365 132.679 125.64 132.099C125.915 131.515 126.298 131.065 126.789 130.746C127.279 130.425 127.846 130.264 128.489 130.264C128.986 130.264 129.381 130.347 129.672 130.513C129.967 130.675 130.193 130.861 130.348 131.07C130.507 131.275 130.63 131.444 130.716 131.577H130.836V130.364H131.969V138.219C131.969 138.875 131.82 139.409 131.522 139.82C131.227 140.234 130.829 140.537 130.328 140.729C129.831 140.925 129.278 141.023 128.668 141.023ZM128.628 136.827C129.099 136.827 129.497 136.719 129.821 136.504C130.146 136.288 130.393 135.978 130.562 135.574C130.731 135.17 130.816 134.686 130.816 134.122C130.816 133.572 130.733 133.086 130.567 132.665C130.401 132.245 130.156 131.915 129.831 131.676C129.507 131.437 129.105 131.318 128.628 131.318C128.131 131.318 127.717 131.444 127.385 131.696C127.057 131.948 126.81 132.286 126.645 132.71C126.482 133.134 126.401 133.605 126.401 134.122C126.401 134.652 126.484 135.121 126.65 135.529C126.819 135.933 127.067 136.252 127.395 136.484C127.727 136.712 128.138 136.827 128.628 136.827ZM134.117 138V130.364H135.25V131.517H135.33C135.469 131.139 135.721 130.833 136.086 130.597C136.45 130.362 136.861 130.244 137.319 130.244C137.405 130.244 137.512 130.246 137.642 130.249C137.771 130.253 137.869 130.258 137.935 130.264V131.457C137.895 131.447 137.804 131.433 137.662 131.413C137.522 131.389 137.375 131.378 137.219 131.378C136.848 131.378 136.516 131.456 136.225 131.612C135.936 131.764 135.708 131.976 135.539 132.248C135.373 132.516 135.29 132.823 135.29 133.168V138H134.117ZM142.295 138.159C141.559 138.159 140.925 137.997 140.391 137.672C139.861 137.344 139.451 136.886 139.163 136.3C138.878 135.71 138.735 135.024 138.735 134.241C138.735 133.459 138.878 132.77 139.163 132.173C139.451 131.573 139.852 131.106 140.366 130.771C140.883 130.433 141.486 130.264 142.176 130.264C142.574 130.264 142.966 130.33 143.354 130.463C143.742 130.596 144.095 130.811 144.413 131.109C144.731 131.404 144.985 131.795 145.174 132.283C145.363 132.77 145.457 133.37 145.457 134.082V134.58H139.571V133.565H144.264C144.264 133.134 144.178 132.75 144.005 132.412C143.836 132.074 143.594 131.807 143.279 131.612C142.968 131.416 142.6 131.318 142.176 131.318C141.708 131.318 141.304 131.434 140.963 131.666C140.625 131.895 140.364 132.193 140.182 132.561C140 132.929 139.909 133.323 139.909 133.744V134.42C139.909 134.997 140.008 135.486 140.207 135.887C140.409 136.285 140.689 136.588 141.047 136.797C141.405 137.002 141.821 137.105 142.295 137.105C142.603 137.105 142.882 137.062 143.13 136.976C143.382 136.886 143.599 136.754 143.782 136.578C143.964 136.399 144.105 136.177 144.204 135.912L145.338 136.23C145.218 136.615 145.018 136.953 144.736 137.244C144.454 137.533 144.106 137.758 143.692 137.92C143.278 138.08 142.812 138.159 142.295 138.159ZM150.125 138.159C149.489 138.159 148.927 137.998 148.44 137.677C147.953 137.352 147.572 136.895 147.297 136.305C147.021 135.711 146.884 135.01 146.884 134.202C146.884 133.4 147.021 132.704 147.297 132.114C147.572 131.524 147.954 131.068 148.445 130.746C148.935 130.425 149.502 130.264 150.145 130.264C150.642 130.264 151.035 130.347 151.324 130.513C151.615 130.675 151.837 130.861 151.99 131.07C152.145 131.275 152.266 131.444 152.353 131.577H152.452V127.818H153.625V138H152.492V136.827H152.353C152.266 136.966 152.144 137.142 151.985 137.354C151.826 137.562 151.599 137.75 151.304 137.915C151.009 138.078 150.616 138.159 150.125 138.159ZM150.284 137.105C150.755 137.105 151.153 136.982 151.478 136.737C151.802 136.489 152.049 136.146 152.218 135.708C152.387 135.267 152.472 134.759 152.472 134.182C152.472 133.612 152.389 133.113 152.223 132.685C152.058 132.254 151.812 131.92 151.488 131.681C151.163 131.439 150.762 131.318 150.284 131.318C149.787 131.318 149.373 131.446 149.042 131.701C148.713 131.953 148.467 132.296 148.301 132.73C148.138 133.161 148.057 133.645 148.057 134.182C148.057 134.725 148.14 135.219 148.306 135.663C148.475 136.104 148.723 136.455 149.051 136.717C149.383 136.976 149.794 137.105 150.284 137.105ZM155.937 138V130.364H157.11V138H155.937ZM156.534 129.091C156.305 129.091 156.108 129.013 155.942 128.857C155.78 128.701 155.699 128.514 155.699 128.295C155.699 128.077 155.78 127.889 155.942 127.734C156.108 127.578 156.305 127.5 156.534 127.5C156.762 127.5 156.958 127.578 157.12 127.734C157.286 127.889 157.369 128.077 157.369 128.295C157.369 128.514 157.286 128.701 157.12 128.857C156.958 129.013 156.762 129.091 156.534 129.091ZM162.461 138.159C161.725 138.159 161.091 137.997 160.557 137.672C160.027 137.344 159.617 136.886 159.329 136.3C159.044 135.71 158.901 135.024 158.901 134.241C158.901 133.459 159.044 132.77 159.329 132.173C159.617 131.573 160.018 131.106 160.532 130.771C161.049 130.433 161.652 130.264 162.342 130.264C162.74 130.264 163.132 130.33 163.52 130.463C163.908 130.596 164.261 130.811 164.579 131.109C164.897 131.404 165.151 131.795 165.34 132.283C165.529 132.77 165.623 133.37 165.623 134.082V134.58H159.737V133.565H164.43C164.43 133.134 164.344 132.75 164.171 132.412C164.002 132.074 163.76 131.807 163.445 131.612C163.134 131.416 162.766 131.318 162.342 131.318C161.874 131.318 161.47 131.434 161.129 131.666C160.791 131.895 160.53 132.193 160.348 132.561C160.166 132.929 160.075 133.323 160.075 133.744V134.42C160.075 134.997 160.174 135.486 160.373 135.887C160.575 136.285 160.855 136.588 161.213 136.797C161.571 137.002 161.987 137.105 162.461 137.105C162.769 137.105 163.048 137.062 163.296 136.976C163.548 136.886 163.765 136.754 163.948 136.578C164.13 136.399 164.271 136.177 164.37 135.912L165.504 136.23C165.384 136.615 165.184 136.953 164.902 137.244C164.62 137.533 164.272 137.758 163.858 137.92C163.444 138.08 162.978 138.159 162.461 138.159ZM168.581 133.406V138H167.408V130.364H168.541V131.557H168.641C168.82 131.169 169.092 130.857 169.456 130.622C169.821 130.384 170.291 130.264 170.868 130.264C171.385 130.264 171.838 130.37 172.225 130.582C172.613 130.791 172.915 131.109 173.13 131.537C173.346 131.961 173.453 132.498 173.453 133.148V138H172.28V133.227C172.28 132.627 172.124 132.16 171.813 131.825C171.501 131.487 171.074 131.318 170.53 131.318C170.155 131.318 169.821 131.399 169.526 131.562C169.234 131.724 169.004 131.961 168.835 132.273C168.666 132.584 168.581 132.962 168.581 133.406ZM178.918 130.364V131.358H174.961V130.364H178.918ZM176.114 128.534H177.288V135.812C177.288 136.144 177.336 136.393 177.432 136.558C177.531 136.721 177.657 136.83 177.81 136.886C177.965 136.939 178.129 136.966 178.302 136.966C178.431 136.966 178.537 136.959 178.62 136.946C178.703 136.929 178.769 136.916 178.819 136.906L179.058 137.96C178.978 137.99 178.867 138.02 178.724 138.05C178.582 138.083 178.401 138.099 178.183 138.099C177.851 138.099 177.526 138.028 177.208 137.886C176.893 137.743 176.631 137.526 176.423 137.234C176.217 136.943 176.114 136.575 176.114 136.131V128.534ZM183.803 138.159C183.067 138.159 182.432 137.997 181.899 137.672C181.368 137.344 180.959 136.886 180.671 136.3C180.386 135.71 180.243 135.024 180.243 134.241C180.243 133.459 180.386 132.77 180.671 132.173C180.959 131.573 181.36 131.106 181.874 130.771C182.391 130.433 182.994 130.264 183.684 130.264C184.081 130.264 184.474 130.33 184.862 130.463C185.25 130.596 185.603 130.811 185.921 131.109C186.239 131.404 186.493 131.795 186.681 132.283C186.87 132.77 186.965 133.37 186.965 134.082V134.58H181.078V133.565H185.772C185.772 133.134 185.685 132.75 185.513 132.412C185.344 132.074 185.102 131.807 184.787 131.612C184.476 131.416 184.108 131.318 183.684 131.318C183.216 131.318 182.812 131.434 182.471 131.666C182.132 131.895 181.872 132.193 181.69 132.561C181.508 132.929 181.417 133.323 181.417 133.744V134.42C181.417 134.997 181.516 135.486 181.715 135.887C181.917 136.285 182.197 136.588 182.555 136.797C182.913 137.002 183.329 137.105 183.803 137.105C184.111 137.105 184.39 137.062 184.638 136.976C184.89 136.886 185.107 136.754 185.289 136.578C185.472 136.399 185.613 136.177 185.712 135.912L186.846 136.23C186.726 136.615 186.526 136.953 186.244 137.244C185.962 137.533 185.614 137.758 185.2 137.92C184.786 138.08 184.32 138.159 183.803 138.159ZM194.159 132.074L193.105 132.372C193.038 132.196 192.941 132.026 192.811 131.86C192.685 131.691 192.513 131.552 192.294 131.442C192.076 131.333 191.796 131.278 191.454 131.278C190.987 131.278 190.597 131.386 190.286 131.602C189.978 131.814 189.824 132.084 189.824 132.412C189.824 132.704 189.93 132.934 190.142 133.103C190.354 133.272 190.685 133.413 191.136 133.526L192.27 133.804C192.952 133.97 193.461 134.223 193.796 134.565C194.131 134.903 194.298 135.339 194.298 135.872C194.298 136.31 194.172 136.701 193.92 137.045C193.672 137.39 193.324 137.662 192.876 137.861C192.429 138.06 191.908 138.159 191.315 138.159C190.536 138.159 189.891 137.99 189.381 137.652C188.871 137.314 188.547 136.82 188.412 136.17L189.525 135.892C189.631 136.303 189.832 136.611 190.127 136.817C190.425 137.022 190.815 137.125 191.295 137.125C191.842 137.125 192.276 137.009 192.598 136.777C192.922 136.542 193.085 136.26 193.085 135.932C193.085 135.667 192.992 135.445 192.806 135.266C192.621 135.083 192.336 134.947 191.951 134.858L190.679 134.56C189.979 134.394 189.466 134.137 189.137 133.789C188.813 133.438 188.65 132.999 188.65 132.472C188.65 132.041 188.771 131.66 189.013 131.328C189.258 130.997 189.592 130.737 190.012 130.548C190.437 130.359 190.917 130.264 191.454 130.264C192.21 130.264 192.803 130.43 193.234 130.761C193.668 131.093 193.976 131.53 194.159 132.074ZM196.919 138.08C196.674 138.08 196.463 137.992 196.288 137.816C196.112 137.64 196.024 137.43 196.024 137.185C196.024 136.939 196.112 136.729 196.288 136.553C196.463 136.378 196.674 136.29 196.919 136.29C197.164 136.29 197.375 136.378 197.551 136.553C197.726 136.729 197.814 136.939 197.814 137.185C197.814 137.347 197.773 137.496 197.69 137.632C197.61 137.768 197.503 137.877 197.367 137.96C197.234 138.04 197.085 138.08 196.919 138.08Z" fill="#828282"/>
<path d="M232.726 116V108.364H234.153V109.607H234.247C234.406 109.186 234.666 108.857 235.028 108.622C235.389 108.384 235.821 108.264 236.325 108.264C236.836 108.264 237.263 108.384 237.608 108.622C237.956 108.861 238.213 109.189 238.379 109.607H238.458C238.64 109.199 238.93 108.874 239.328 108.632C239.726 108.387 240.2 108.264 240.75 108.264C241.443 108.264 242.008 108.481 242.445 108.915C242.886 109.35 243.107 110.004 243.107 110.879V116H241.62V111.018C241.62 110.501 241.479 110.127 241.197 109.895C240.916 109.663 240.579 109.547 240.188 109.547C239.704 109.547 239.328 109.696 239.06 109.994C238.791 110.289 238.657 110.669 238.657 111.133V116H237.175V110.924C237.175 110.51 237.046 110.177 236.788 109.925C236.529 109.673 236.193 109.547 235.778 109.547C235.497 109.547 235.237 109.621 234.998 109.771C234.763 109.916 234.572 110.12 234.426 110.382C234.284 110.644 234.212 110.947 234.212 111.292V116H232.726ZM248.39 116.154C247.638 116.154 246.99 115.993 246.446 115.672C245.906 115.347 245.488 114.891 245.193 114.305C244.902 113.715 244.756 113.024 244.756 112.232C244.756 111.449 244.902 110.76 245.193 110.163C245.488 109.567 245.899 109.101 246.426 108.766C246.957 108.432 247.576 108.264 248.286 108.264C248.717 108.264 249.134 108.335 249.539 108.478C249.943 108.621 250.306 108.844 250.627 109.149C250.949 109.454 251.202 109.85 251.388 110.337C251.574 110.821 251.666 111.41 251.666 112.102V112.629H245.596V111.516H250.21C250.21 111.125 250.13 110.778 249.971 110.477C249.812 110.172 249.588 109.931 249.3 109.756C249.015 109.58 248.68 109.492 248.296 109.492C247.878 109.492 247.513 109.595 247.202 109.8C246.894 110.003 246.655 110.268 246.486 110.596C246.32 110.921 246.237 111.274 246.237 111.655V112.525C246.237 113.035 246.327 113.469 246.506 113.827C246.688 114.185 246.942 114.459 247.267 114.648C247.591 114.833 247.971 114.926 248.405 114.926C248.687 114.926 248.944 114.886 249.176 114.807C249.408 114.724 249.608 114.601 249.777 114.439C249.946 114.277 250.075 114.076 250.165 113.837L251.572 114.091C251.459 114.505 251.257 114.868 250.965 115.18C250.677 115.488 250.314 115.728 249.877 115.901C249.442 116.07 248.947 116.154 248.39 116.154ZM254.802 105.818V116H253.316V105.818H254.802ZM258.289 111.466V116H256.802V105.818H258.269V109.607H258.363C258.542 109.196 258.816 108.869 259.183 108.627C259.551 108.385 260.032 108.264 260.625 108.264C261.149 108.264 261.606 108.372 261.997 108.587C262.392 108.803 262.697 109.124 262.912 109.552C263.131 109.976 263.24 110.506 263.24 111.143V116H261.754V111.322C261.754 110.762 261.61 110.327 261.321 110.019C261.033 109.708 260.632 109.552 260.118 109.552C259.767 109.552 259.452 109.626 259.173 109.776C258.898 109.925 258.681 110.143 258.522 110.432C258.366 110.717 258.289 111.062 258.289 111.466ZM268.441 116.154C267.725 116.154 267.1 115.99 266.566 115.662C266.033 115.334 265.618 114.875 265.323 114.285C265.028 113.695 264.881 113.005 264.881 112.217C264.881 111.424 265.028 110.732 265.323 110.138C265.618 109.545 266.033 109.085 266.566 108.756C267.1 108.428 267.725 108.264 268.441 108.264C269.156 108.264 269.781 108.428 270.315 108.756C270.848 109.085 271.263 109.545 271.558 110.138C271.853 110.732 272 111.424 272 112.217C272 113.005 271.853 113.695 271.558 114.285C271.263 114.875 270.848 115.334 270.315 115.662C269.781 115.99 269.156 116.154 268.441 116.154ZM268.445 114.906C268.91 114.906 269.294 114.784 269.599 114.538C269.904 114.293 270.129 113.967 270.275 113.559C270.424 113.151 270.499 112.702 270.499 112.212C270.499 111.724 270.424 111.277 270.275 110.869C270.129 110.458 269.904 110.129 269.599 109.88C269.294 109.631 268.91 109.507 268.445 109.507C267.978 109.507 267.59 109.631 267.282 109.88C266.977 110.129 266.75 110.458 266.601 110.869C266.455 111.277 266.382 111.724 266.382 112.212C266.382 112.702 266.455 113.151 266.601 113.559C266.75 113.967 266.977 114.293 267.282 114.538C267.59 114.784 267.978 114.906 268.445 114.906ZM273.659 116V108.364H275.096V109.577H275.176C275.315 109.166 275.56 108.843 275.912 108.607C276.266 108.369 276.667 108.249 277.115 108.249C277.208 108.249 277.317 108.253 277.443 108.259C277.572 108.266 277.673 108.274 277.746 108.284V109.706C277.686 109.689 277.58 109.671 277.428 109.651C277.275 109.628 277.123 109.616 276.971 109.616C276.619 109.616 276.306 109.691 276.031 109.84C275.759 109.986 275.544 110.19 275.385 110.452C275.225 110.71 275.146 111.005 275.146 111.337V116H273.659ZM282.05 116.154C281.298 116.154 280.65 115.993 280.106 115.672C279.566 115.347 279.148 114.891 278.854 114.305C278.562 113.715 278.416 113.024 278.416 112.232C278.416 111.449 278.562 110.76 278.854 110.163C279.148 109.567 279.559 109.101 280.086 108.766C280.617 108.432 281.237 108.264 281.946 108.264C282.377 108.264 282.794 108.335 283.199 108.478C283.603 108.621 283.966 108.844 284.287 109.149C284.609 109.454 284.863 109.85 285.048 110.337C285.234 110.821 285.327 111.41 285.327 112.102V112.629H279.256V111.516H283.87C283.87 111.125 283.79 110.778 283.631 110.477C283.472 110.172 283.248 109.931 282.96 109.756C282.675 109.58 282.34 109.492 281.956 109.492C281.538 109.492 281.174 109.595 280.862 109.8C280.554 110.003 280.315 110.268 280.146 110.596C279.98 110.921 279.898 111.274 279.898 111.655V112.525C279.898 113.035 279.987 113.469 280.166 113.827C280.348 114.185 280.602 114.459 280.927 114.648C281.251 114.833 281.631 114.926 282.065 114.926C282.347 114.926 282.604 114.886 282.836 114.807C283.068 114.724 283.268 114.601 283.437 114.439C283.606 114.277 283.736 114.076 283.825 113.837L285.232 114.091C285.119 114.505 284.917 114.868 284.626 115.18C284.337 115.488 283.974 115.728 283.537 115.901C283.103 116.07 282.607 116.154 282.05 116.154ZM292.698 110.228L291.351 110.467C291.295 110.294 291.205 110.13 291.082 109.974C290.963 109.819 290.801 109.691 290.595 109.592C290.39 109.492 290.133 109.442 289.825 109.442C289.404 109.442 289.052 109.537 288.771 109.726C288.489 109.911 288.348 110.152 288.348 110.447C288.348 110.702 288.442 110.907 288.631 111.063C288.82 111.219 289.125 111.347 289.546 111.446L290.759 111.724C291.462 111.887 291.986 112.137 292.33 112.475C292.675 112.813 292.847 113.252 292.847 113.793C292.847 114.25 292.715 114.658 292.45 115.016C292.188 115.37 291.821 115.649 291.351 115.851C290.884 116.053 290.342 116.154 289.725 116.154C288.87 116.154 288.172 115.972 287.632 115.607C287.092 115.239 286.76 114.717 286.638 114.041L288.075 113.822C288.164 114.197 288.348 114.48 288.626 114.673C288.905 114.862 289.268 114.956 289.715 114.956C290.202 114.956 290.592 114.855 290.884 114.653C291.175 114.447 291.321 114.197 291.321 113.902C291.321 113.663 291.232 113.463 291.053 113.3C290.877 113.138 290.607 113.015 290.242 112.933L288.95 112.649C288.237 112.487 287.71 112.228 287.369 111.874C287.031 111.519 286.862 111.07 286.862 110.526C286.862 110.076 286.987 109.681 287.239 109.343C287.491 109.005 287.839 108.741 288.283 108.553C288.728 108.36 289.236 108.264 289.81 108.264C290.635 108.264 291.285 108.443 291.759 108.801C292.232 109.156 292.546 109.631 292.698 110.228Z" fill="#333333"/>
<mask id="mask0_11602_430" style="mask-type:alpha" maskUnits="userSpaceOnUse" x="20" y="0" width="230" height="35">
<path d="M20 26.988H31.5305C37.5922 26.988 40.8208 23.8253 40.8208 19.5294C40.8208 15.5365 37.9612 13.125 34.8908 12.98V12.7165C37.6977 12.084 39.7666 10.0941 39.7666 6.9183C39.7666 2.87274 36.762 0 30.8057 0H20V26.988ZM25.7059 22.323V15.1544H30.4895C33.2304 15.1544 34.9303 16.7357 34.9303 18.9627C34.9303 20.9921 33.5467 22.323 30.3577 22.323H25.7059ZM25.7059 11.2933V4.6122H30.0414C32.5715 4.6122 34.0079 5.91679 34.0079 7.86709C34.0079 10.0019 32.2684 11.2933 29.936 11.2933H25.7059Z" fill="#333333"/>
<path d="M57.4082 18.3697C57.4214 21.0843 55.5633 22.5075 53.5472 22.5075C51.4255 22.5075 50.0551 21.0184 50.0419 18.6333V6.74699H44.4282V19.6348C44.4414 24.3656 47.2087 27.2515 51.2806 27.2515C54.3246 27.2515 56.5121 25.6834 57.4214 23.3114H57.6322V26.988H63.0219V6.74699H57.4082V18.3697Z" fill="#333333"/>
<path d="M67.5122 26.988H73.1259V15.5365C73.1259 13.0459 74.9445 11.3328 77.4219 11.3328C78.1994 11.3328 79.2668 11.4646 79.7939 11.6359V6.65474C79.2931 6.53614 78.5947 6.45708 78.028 6.45708C75.7615 6.45708 73.9034 7.77485 73.1655 10.2786H72.9546V6.74699H67.5122V26.988Z" fill="#333333"/>
<path d="M90.873 35C96.658 35 100.769 32.3645 100.769 27.1856V6.74699H95.1953V10.1468H94.9845C94.2333 8.49962 92.5861 6.48343 89.1995 6.48343C84.7586 6.48343 81.0029 9.93599 81.0029 16.8279C81.0029 23.5617 84.6531 26.698 89.2126 26.698C92.4412 26.698 94.2465 25.0772 94.9845 23.4036H95.2217V27.1066C95.2217 29.887 93.4427 30.9676 91.0048 30.9676C88.5274 30.9676 87.2755 29.887 86.8143 28.6615L81.6223 29.3599C82.2943 32.5489 85.4175 35 90.873 35ZM90.9916 22.4812C88.2375 22.4812 86.7352 20.2937 86.7352 16.8016C86.7352 13.3622 88.2111 10.9507 90.9916 10.9507C93.7194 10.9507 95.248 13.2568 95.248 16.8016C95.248 20.3727 93.6931 22.4812 90.9916 22.4812Z" fill="#333333"/>
<path d="M118.217 18.3697C118.23 21.0843 116.372 22.5075 114.356 22.5075C112.234 22.5075 110.864 21.0184 110.85 18.6333V6.74699H105.237V19.6348C105.25 24.3656 108.017 27.2515 112.089 27.2515C115.133 27.2515 117.321 25.6834 118.23 23.3114H118.441V26.988H123.83V6.74699H118.217V18.3697Z" fill="#333333"/>
<path d="M137.545 27.3833C142.553 27.3833 145.926 24.9454 146.717 21.1898L141.525 20.8471C140.958 22.3889 139.509 23.1928 137.637 23.1928C134.831 23.1928 133.052 21.3347 133.052 18.317V18.3038H146.835V16.762C146.835 9.88328 142.671 6.48343 137.321 6.48343C131.365 6.48343 127.504 10.7135 127.504 16.9597C127.504 23.3773 131.312 27.3833 137.545 27.3833ZM133.052 14.8249C133.17 12.5188 134.923 10.6739 137.413 10.6739C139.851 10.6739 141.538 12.4134 141.551 14.8249H133.052Z" fill="#333333"/>
<path d="M150.499 26.988H156.113V15.5365C156.113 13.0459 157.931 11.3328 160.409 11.3328C161.186 11.3328 162.253 11.4646 162.78 11.6359V6.65474C162.28 6.53614 161.581 6.45708 161.015 6.45708C158.748 6.45708 156.89 7.77485 156.152 10.2786H155.941V6.74699H150.499V26.988Z" fill="#333333"/>
<path d="M173.532 26.988H177.184V22.0795L178.981 19.8867L183.712 26.988H188.081L181.595 17.4494L188.005 9.71566H183.628L177.412 17.3313H177.184V9.71566H173.532V26.988Z" fill="#333333"/>
<path d="M194.792 27.241C197.997 27.241 200.156 25.6807 200.662 23.2771L197.339 23.0578C196.976 24.0446 196.048 24.559 194.851 24.559C193.054 24.559 191.916 23.3699 191.916 21.4386V21.4301H200.738V20.4434C200.738 16.041 198.073 13.8651 194.648 13.8651C190.836 13.8651 188.365 16.5723 188.365 20.5699C188.365 24.6771 190.803 27.241 194.792 27.241ZM191.916 19.2036C191.992 17.7277 193.113 16.547 194.707 16.547C196.268 16.547 197.347 17.6602 197.356 19.2036H191.916Z" fill="#333333"/>
<path d="M206.675 19.4988C206.683 17.8289 207.679 16.8506 209.129 16.8506C210.571 16.8506 211.44 17.7952 211.432 19.3807V26.988H215.024V18.7398C215.024 15.7205 213.253 13.8651 210.554 13.8651C208.632 13.8651 207.24 14.8096 206.658 16.3193H206.506V14.0337H203.082V26.988H206.675V19.4988Z" fill="#333333"/>
<path d="M217.788 26.988H228.676V24.1205H222.503V24.0277L228.457 16.3699V14.0337H218.008V16.9012H224.131V16.994L217.788 24.8458V26.988Z" fill="#333333"/>
<path d="M231.424 26.988H235.016V14.0337H231.424V26.988ZM233.229 12.3639C234.3 12.3639 235.177 11.5458 235.177 10.5422C235.177 9.54699 234.3 8.72892 233.229 8.72892C232.166 8.72892 231.289 9.54699 231.289 10.5422C231.289 11.5458 232.166 12.3639 233.229 12.3639Z" fill="#333333"/>
<path d="M243.798 27.241C247.003 27.241 249.162 25.6807 249.668 23.2771L246.345 23.0578C245.982 24.0446 245.055 24.559 243.857 24.559C242.061 24.559 240.922 23.3699 240.922 21.4386V21.4301H249.744V20.4434C249.744 16.041 247.079 13.8651 243.655 13.8651C239.843 13.8651 237.372 16.5723 237.372 20.5699C237.372 24.6771 239.809 27.241 243.798 27.241ZM240.922 19.2036C240.998 17.7277 242.12 16.547 243.714 16.547C245.274 16.547 246.354 17.6602 246.362 19.2036H240.922Z" fill="#333333"/>
</mask>
<g mask="url(#mask0_11602_430)">
<rect x="11.0941" y="-13.3591" width="243.431" height="56.4048" fill="url(#paint0_linear_11602_430)"/>
</g>
<rect x="34" y="82" width="60" height="60" rx="5" fill="#27AE60" fill-opacity="0.1"/>
<path d="M58 100L55 104V118C55 118.53 55.2107 119.039 55.5858 119.414C55.9609 119.789 56.4696 120 57 120H71C71.5304 120 72.0391 119.789 72.4142 119.414C72.7893 119.039 73 118.53 73 118V104L70 100H58Z" stroke="#219653" stroke-width="2" stroke-linecap="round" stroke-linejoin="round"/>
<path d="M55 104H73" stroke="#219653" stroke-width="2" stroke-linecap="round" stroke-linejoin="round"/>
<path d="M68 108C68 109.061 67.5786 110.078 66.8284 110.828C66.0783 111.579 65.0609 112 64 112C62.9391 112 61.9217 111.579 61.1716 110.828C60.4214 110.078 60 109.061 60 108" stroke="#219653" stroke-width="2" stroke-linecap="round" stroke-linejoin="round"/>
<defs>
<filter id="filter0_d_11602_430" x="0" y="49" width="417" height="135" filterUnits="userSpaceOnUse" color-interpolation-filters="sRGB">
<feFlood flood-opacity="0" result="BackgroundImageFix"/>
<feColorMatrix in="SourceAlpha" type="matrix" values="0 0 0 0 0 0 0 0 0 0 0 0 0 0 0 0 0 0 127 0" result="hardAlpha"/>
<feMorphology radius="20" operator="erode" in="SourceAlpha" result="effect1_dropShadow_11602_430"/>
<feOffset dy="4"/>
<feGaussianBlur stdDeviation="20"/>
<feComposite in2="hardAlpha" operator="out"/>
<feColorMatrix type="matrix" values="0 0 0 0 0 0 0 0 0 0 0 0 0 0 0 0 0 0 0.25 0"/>
<feBlend mode="normal" in2="BackgroundImageFix" result="effect1_dropShadow_11602_430"/>
<feBlend mode="normal" in="SourceGraphic" in2="effect1_dropShadow_11602_430" result="shape"/>
</filter>
<linearGradient id="paint0_linear_11602_430" x1="163.59" y1="43.396" x2="168.695" y2="43.396" gradientUnits="userSpaceOnUse">
<stop stop-color="#333333"/>
<stop offset="1" stop-color="#EB5757"/>
</linearGradient>
</defs>
</svg>
